<?xml version="1.0" encoding="UTF-8" standalone="no"?>
<!-- Created with Inkscape (http://www.inkscape.org/) -->

<svg
   xmlns:osb="http://www.openswatchbook.org/uri/2009/osb"
   xmlns:dc="http://purl.org/dc/elements/1.1/"
   xmlns:cc="http://creativecommons.org/ns#"
   xmlns:rdf="http://www.w3.org/1999/02/22-rdf-syntax-ns#"
   xmlns:svg="http://www.w3.org/2000/svg"
   xmlns="http://www.w3.org/2000/svg"
   xmlns:sodipodi="http://sodipodi.sourceforge.net/DTD/sodipodi-0.dtd"
   xmlns:inkscape="http://www.inkscape.org/namespaces/inkscape"
   width="900"
   height="650"
   viewBox="0 0 238.12499 171.97917"
   version="1.1"
   id="svg8"
   inkscape:version="0.92.4 (5da689c313, 2019-01-14)"
   sodipodi:docname="gecor.svg">
  <defs
     id="defs2">
    <linearGradient
       osb:paint="gradient"
       id="linearGradient4508">
      <stop
         style="stop-color:#000000;stop-opacity:1;"
         offset="0"
         id="stop4512" />
      <stop
         style="stop-color:#000000;stop-opacity:0;"
         offset="1"
         id="stop4514" />
    </linearGradient>
  </defs>
  <sodipodi:namedview
     id="base"
     pagecolor="#ffffff"
     bordercolor="#666666"
     borderopacity="1.0"
     inkscape:pageopacity="0.0"
     inkscape:pageshadow="2"
     inkscape:zoom="1.1955544"
     inkscape:cx="246.86952"
     inkscape:cy="321.44771"
     inkscape:document-units="px"
     inkscape:current-layer="layer1"
     showgrid="false"
     units="px"
     showguides="true"
     inkscape:guide-bbox="true"
     inkscape:window-width="2400"
     inkscape:window-height="1271"
     inkscape:window-x="-9"
     inkscape:window-y="-9"
     inkscape:window-maximized="1">
    <sodipodi:guide
       position="-271.38689,17.197916"
       orientation="0,1"
       id="guide815"
       inkscape:locked="false"
       inkscape:label=""
       inkscape:color="rgb(0,0,255)" />
    <sodipodi:guide
       position="-46.869046,154.78125"
       orientation="0,1"
       id="guide817"
       inkscape:locked="false"
       inkscape:label=""
       inkscape:color="rgb(0,0,255)" />
  </sodipodi:namedview>
  <metadata
     id="metadata5">
    <rdf:RDF>
      <cc:Work
         rdf:about="">
        <dc:format>image/svg+xml</dc:format>
        <dc:type
           rdf:resource="http://purl.org/dc/dcmitype/StillImage" />
        <dc:title />
      </cc:Work>
    </rdf:RDF>
  </metadata>
  <g
     inkscape:label="Layer 1"
     inkscape:groupmode="layer"
     id="layer1"
     transform="translate(0,-125.02081)"
     style="display:inline"
     sodipodi:insensitive="true">
    <rect
       style="opacity:1;fill:#33673b;fill-opacity:1;stroke:none;stroke-width:26.45776558;stroke-linecap:butt;stroke-linejoin:miter;stroke-miterlimit:4;stroke-dasharray:none;stroke-opacity:1;paint-order:markers stroke fill"
       id="rect819"
       width="238.125"
       height="171.97917"
       x="-1.7763568e-15"
       y="125.02081" />
  </g>
  <g
     inkscape:groupmode="layer"
     id="layer2"
     inkscape:label="Layer 2"
     style="display:inline">
    <circle
       style="opacity:1;fill:#ffffff;fill-opacity:1;stroke:none;stroke-width:436.01272583;stroke-linecap:butt;stroke-linejoin:miter;stroke-miterlimit:4;stroke-dasharray:none;stroke-opacity:1;paint-order:markers stroke fill"
       id="path861"
       cx="119.0625"
       cy="85.989586"
       r="67.779518" />
    <g
       id="g859"
       transform="matrix(0.66610954,0,0,0.66610954,49.120997,16.048081)">
      <g
         transform="translate(0,-87)"
         inkscape:label="outcircle"
         id="layer2-4">
        <circle
           style="display:inline;fill:none;stroke:#080000;stroke-width:10;stroke-miterlimit:4;stroke-dasharray:none;stroke-opacity:1"
           r="98.273804"
           cy="192"
           cx="105"
           id="path3693" />
      </g>
      <g
         transform="translate(0,-87)"
         id="g4495"
         inkscape:label="border external">
        <circle
           id="circle4493"
           cx="105"
           cy="192"
           r="102.79113"
           style="display:inline;fill:none;fill-opacity:1;stroke:none;stroke-width:1.84000003;stroke-miterlimit:4;stroke-dasharray:none;stroke-opacity:1" />
      </g>
      <g
         transform="translate(0,-87)"
         id="g4502"
         inkscape:label="inner circle"
         style="stroke:#000000;stroke-opacity:1">
        <circle
           id="circle4500"
           cx="105.07738"
           cy="192"
           r="88.679962"
           style="display:inline;fill:#db2b31;fill-opacity:1;stroke:#000000;stroke-width:3.13000011;stroke-miterlimit:4;stroke-dasharray:none;stroke-opacity:1" />
      </g>
      <g
         transform="translate(0,-87)"
         inkscape:label="Layer 2"
         id="layer3">
        <path
           inkscape:connector-curvature="0"
           id="text4506"
           d="m 77.948212,145.27004 c -14.792893,0 -26.804564,5.17953 -36.035008,15.53858 -7.779369,8.70645 -11.669057,18.94458 -11.669057,30.71441 0,8.58552 2.095998,16.58658 6.28799,24.00318 4.232299,7.4166 9.955982,13.14029 17.171045,17.17105 7.25537,3.99045 15.498278,5.98568 24.728723,5.98568 8.625829,0 16.1432,-1.834 22.552115,-5.50199 2.51264,-1.43805 4.83954,-3.13422 6.98665,-5.08031 8.3944,7.08467 18.81163,10.62932 31.25442,10.62932 7.49722,0 14.16813,-1.22938 20.01273,-3.68814 5.84461,-2.49907 12.05198,-6.95307 18.62212,-13.36198 l -11.48767,-11.97136 c -4.87722,4.83691 -9.35137,8.18245 -13.42244,10.0366 -4.07106,1.81384 -8.56536,2.72076 -13.48289,2.72076 -5.76399,0 -11.00398,-1.31 -15.71997,-3.92999 -2.08753,-1.15974 -3.96482,-2.514 -5.63377,-4.06074 3.04971,-6.1568 4.57647,-12.61811 4.57647,-19.38486 l -0.12093,-3.74861 h -13.6281 c 0.13195,-8.24556 3.03052,-15.20342 8.69972,-20.87263 5.84461,-5.80429 13.01936,-8.70644 21.52427,-8.70644 10.0769,0 19.14612,4.25245 27.20764,12.75736 l 11.85044,-11.30629 c -4.91753,-5.72368 -10.78229,-10.13736 -17.59427,-13.24105 -6.77168,-3.10368 -13.82552,-4.65553 -21.1615,-4.65553 -8.62583,0 -16.68736,2.096 -24.18457,6.28799 -2.10771,1.18487 -4.07367,2.48131 -5.90765,3.88193 -3.20008,-2.55106 -6.44019,-4.52815 -9.720856,-5.92418 -6.73137,-2.86184 -13.966589,-4.29276 -21.705652,-4.29276 z m 0.120923,16.56643 c 7.329088,0 13.990941,2.13039 19.98741,6.38617 -0.0019,0.003 -0.0038,0.006 -0.0057,0.009 -3.910312,6.75418 -5.899396,14.45899 -5.97793,23.1097 H 77.827284 v 15.90136 h 16.380397 c 0.901573,2.98441 2.086835,5.81028 3.557921,8.47597 -1.211168,1.19073 -2.514929,2.21748 -3.91604,3.07216 -3.990454,2.45877 -8.907984,3.68815 -14.752587,3.68815 -8.9886,0 -16.546277,-2.98277 -22.673035,-8.94829 -6.126757,-5.96553 -9.190138,-13.24105 -9.190138,-21.82658 0,-8.30337 2.942458,-15.3572 8.827371,-21.1615 5.925219,-5.80429 13.261205,-8.70644 22.007956,-8.70644 z"
           style="font-style:normal;font-weight:normal;font-size:10.58333302px;line-height:1.25;font-family:sans-serif;letter-spacing:0px;word-spacing:0px;display:inline;fill:#ffffff;fill-opacity:1;stroke:#000000;stroke-width:1.36000001;stroke-miterlimit:4;stroke-dasharray:none;stroke-opacity:1" />
      </g>
    </g>
  </g>
</svg>
