<?xml version="1.0" encoding="UTF-8" standalone="no"?>
<!-- Created with Inkscape (http://www.inkscape.org/) -->

<svg
   xmlns:dc="http://purl.org/dc/elements/1.1/"
   xmlns:cc="http://creativecommons.org/ns#"
   xmlns:rdf="http://www.w3.org/1999/02/22-rdf-syntax-ns#"
   xmlns:svg="http://www.w3.org/2000/svg"
   xmlns="http://www.w3.org/2000/svg"
   xmlns:sodipodi="http://sodipodi.sourceforge.net/DTD/sodipodi-0.dtd"
   xmlns:inkscape="http://www.inkscape.org/namespaces/inkscape"
   width="900"
   height="650"
   viewBox="0 0 238.12499 171.97917"
   version="1.1"
   id="svg8"
   inkscape:version="0.92.4 (5da689c313, 2019-01-14)"
   sodipodi:docname="sc_website.svg">
  <defs
     id="defs2">
    <clipPath
       id="clipPath937"
       clipPathUnits="userSpaceOnUse">
      <path
         style="display:inline;fill:#000000;fill-opacity:1;stroke:#000000;stroke-width:0.26458332px;stroke-linecap:butt;stroke-linejoin:miter;stroke-opacity:1"
         d="M 66.145832,66.14583 185.05713,98.008021 66.145832,127.56696 -38.768837,94.257629 Z"
         id="path939"
         inkscape:connector-curvature="0"
         sodipodi:insensitive="true" />
    </clipPath>
    <clipPath
       id="clipPath943"
       clipPathUnits="userSpaceOnUse">
      <path
         style="display:inline;fill:none;stroke:#000000;stroke-width:0.26458332px;stroke-linecap:butt;stroke-linejoin:miter;stroke-opacity:1"
         d="M 66.145832,66.14583 182.59441,34.943531 47.247024,1.88988 -35.500431,38.909799 Z"
         id="path945"
         inkscape:connector-curvature="0"
         sodipodi:insensitive="true" />
    </clipPath>
    <clipPath
       id="clipPath959"
       clipPathUnits="userSpaceOnUse">
      <path
         style="fill:none;stroke:#000000;stroke-width:0.26458332px;stroke-linecap:butt;stroke-linejoin:miter;stroke-opacity:1"
         d="m 66.145832,66.14583 72.535868,-41.8786 0.0161,83.76647 z"
         id="path961"
         inkscape:connector-curvature="0" />
    </clipPath>
    <clipPath
       id="clipPath963"
       clipPathUnits="userSpaceOnUse">
      <path
         style="display:inline;fill:none;stroke:#000000;stroke-width:0.26458332px;stroke-linecap:butt;stroke-linejoin:miter;stroke-opacity:1"
         d="M 66.145832,66.14583 -11.11722,21.53799 -8.64184,109.32451 Z"
         id="path965"
         inkscape:connector-curvature="0" />
    </clipPath>
    <clipPath
       id="clipPath995"
       clipPathUnits="userSpaceOnUse">
      <path
         style="display:inline;fill:none;stroke:#000000;stroke-width:0.26458332px;stroke-linecap:butt;stroke-linejoin:miter;stroke-opacity:1"
         d="M 66.145832,66.14583 182.59441,34.943531 47.247024,1.88988 -35.500431,38.909799 Z"
         id="path997"
         inkscape:connector-curvature="0"
         sodipodi:insensitive="true" />
    </clipPath>
    <clipPath
       id="clipPath999"
       clipPathUnits="userSpaceOnUse">
      <path
         style="display:inline;fill:#000000;fill-opacity:1;stroke:#000000;stroke-width:0.26458332px;stroke-linecap:butt;stroke-linejoin:miter;stroke-opacity:1"
         d="M 66.145832,66.14583 185.05713,98.008021 66.145832,127.56696 -38.768837,94.257629 Z"
         id="path1001"
         inkscape:connector-curvature="0"
         sodipodi:insensitive="true" />
    </clipPath>
    <clipPath
       id="clipPath1015"
       clipPathUnits="userSpaceOnUse">
      <path
         style="display:inline;fill:none;stroke:#000000;stroke-width:0.26458332px;stroke-linecap:butt;stroke-linejoin:miter;stroke-opacity:1"
         d="M 66.145832,66.14583 -11.11722,21.53799 -8.64184,109.32451 Z"
         id="path1017"
         inkscape:connector-curvature="0" />
    </clipPath>
    <clipPath
       id="clipPath1019"
       clipPathUnits="userSpaceOnUse">
      <path
         style="display:inline;fill:none;stroke:#000000;stroke-width:0.26458332px;stroke-linecap:butt;stroke-linejoin:miter;stroke-opacity:1"
         d="m 66.145832,66.14583 72.535868,-41.8786 0.0161,83.76647 z"
         id="path1021"
         inkscape:connector-curvature="0" />
    </clipPath>
  </defs>
  <sodipodi:namedview
     id="base"
     pagecolor="#ffffff"
     bordercolor="#666666"
     borderopacity="1.0"
     inkscape:pageopacity="0.0"
     inkscape:pageshadow="2"
     inkscape:zoom="0.49497475"
     inkscape:cx="-100.79107"
     inkscape:cy="133.57329"
     inkscape:document-units="px"
     inkscape:current-layer="layer3"
     showgrid="false"
     units="px"
     showguides="true"
     inkscape:guide-bbox="true"
     inkscape:window-width="1920"
     inkscape:window-height="1017"
     inkscape:window-x="-8"
     inkscape:window-y="-8"
     inkscape:window-maximized="1">
    <sodipodi:guide
       position="-271.38689,17.197916"
       orientation="0,1"
       id="guide815"
       inkscape:locked="false"
       inkscape:label=""
       inkscape:color="rgb(0,0,255)" />
    <sodipodi:guide
       position="-46.869046,154.78125"
       orientation="0,1"
       id="guide817"
       inkscape:locked="false"
       inkscape:label=""
       inkscape:color="rgb(0,0,255)" />
  </sodipodi:namedview>
  <metadata
     id="metadata5">
    <rdf:RDF>
      <cc:Work
         rdf:about="">
        <dc:format>image/svg+xml</dc:format>
        <dc:type
           rdf:resource="http://purl.org/dc/dcmitype/StillImage" />
        <dc:title />
      </cc:Work>
    </rdf:RDF>
  </metadata>
  <g
     inkscape:label="Layer 1"
     inkscape:groupmode="layer"
     id="layer1"
     transform="translate(0,-125.02081)">
    <rect
       style="opacity:1;fill:#ee964c;fill-opacity:1;stroke:none;stroke-width:26.45776558;stroke-linecap:butt;stroke-linejoin:miter;stroke-miterlimit:4;stroke-dasharray:none;stroke-opacity:1;paint-order:markers stroke fill"
       id="rect819"
       width="238.125"
       height="171.97917"
       x="-1.7763568e-15"
       y="125.02081" />
  </g>
  <g
     inkscape:groupmode="layer"
     id="layer2"
     inkscape:label="Layer 2">
    <g
       id="g908"
       transform="translate(53.040464,-2.5499465)">
      <g
         style="display:inline"
         inkscape:label="ellipse external"
         id="layer2-1">
        <ellipse
           inkscape:label="original"
           ry="37.534416"
           rx="60.73196"
           cy="66.145836"
           cx="66.145836"
           id="path826"
           style="display:none;fill:none;fill-opacity:1;stroke:#000000;stroke-width:3.96875;stroke-linecap:round;stroke-linejoin:round;stroke-miterlimit:4;stroke-dasharray:none;stroke-opacity:1;paint-order:markers fill stroke" />
        <path
           inkscape:label="right"
           clip-path="url(#clipPath959)"
           sodipodi:open="true"
           d="m 108.7879,39.419702 a 60.73196,37.534416 0 0 1 18.07404,27.583802 60.73196,37.534416 0 0 1 -20.09431,27.044641"
           sodipodi:end="0.83810856"
           sodipodi:start="5.4907811"
           sodipodi:ry="37.534416"
           sodipodi:rx="60.73196"
           sodipodi:cy="66.145836"
           sodipodi:cx="66.145836"
           sodipodi:type="arc"
           style="display:none;fill:none;fill-opacity:1;stroke:#000000;stroke-width:3.96875;stroke-linecap:round;stroke-linejoin:round;stroke-miterlimit:4;stroke-dasharray:none;stroke-opacity:1;paint-order:markers fill stroke"
           id="ellipse947" />
        <path
           inkscape:label="left"
           clip-path="url(#clipPath963)"
           sodipodi:open="true"
           d="M 50.477534,102.40961 A 60.73196,37.534416 0 0 1 5.6220535,69.250974 60.73196,37.534416 0 0 1 41.017006,31.975134"
           sodipodi:end="4.2858019"
           sodipodi:start="1.8317386"
           sodipodi:ry="37.534416"
           sodipodi:rx="60.73196"
           sodipodi:cy="66.145836"
           sodipodi:cx="66.145836"
           sodipodi:type="arc"
           id="ellipse949"
           style="display:none;fill:none;fill-opacity:1;stroke:#000000;stroke-width:3.96875;stroke-linecap:round;stroke-linejoin:round;stroke-miterlimit:4;stroke-dasharray:none;stroke-opacity:1;paint-order:markers fill stroke" />
        <path
           inkscape:label="bottom"
           clip-path="url(#clipPath999)"
           sodipodi:open="true"
           d="M 123.89783,77.758931 A 60.73196,37.534416 0 0 1 65.735909,103.6794 60.73196,37.534416 0 0 1 8.1454505,77.276048"
           sodipodi:end="2.8405318"
           sodipodi:start="0.31456051"
           sodipodi:ry="37.534416"
           sodipodi:rx="60.73196"
           sodipodi:cy="66.145836"
           sodipodi:cx="66.145836"
           sodipodi:type="arc"
           style="display:inline;fill:none;fill-opacity:1;stroke:#000000;stroke-width:6.61458302;stroke-linecap:round;stroke-linejoin:round;stroke-miterlimit:4;stroke-dasharray:none;stroke-opacity:1;paint-order:markers fill stroke"
           id="ellipse967" />
        <path
           inkscape:label="top"
           clip-path="url(#clipPath995)"
           sodipodi:open="true"
           d="M 8.6071395,54.135137 A 60.73196,37.534416 0 0 1 65.990673,28.611542 60.73196,37.534416 0 0 1 123.58448,53.953587"
           sodipodi:end="5.9523549"
           sodipodi:start="3.4673133"
           sodipodi:ry="37.534416"
           sodipodi:rx="60.73196"
           sodipodi:cy="66.145836"
           sodipodi:cx="66.145836"
           sodipodi:type="arc"
           id="ellipse969"
           style="display:inline;fill:none;fill-opacity:1;stroke:#000000;stroke-width:6.61458302;stroke-linecap:round;stroke-linejoin:round;stroke-miterlimit:4;stroke-dasharray:none;stroke-opacity:1;paint-order:markers fill stroke" />
      </g>
      <g
         id="g835"
         inkscape:label="ellipse internal"
         style="display:inline">
        <ellipse
           inkscape:label="original"
           cx="66.145836"
           cy="66.145836"
           rx="50.707554"
           ry="31.338991"
           style="display:none;fill:none;fill-opacity:1;stroke:#00f200;stroke-width:3.96875;stroke-linecap:round;stroke-linejoin:round;stroke-miterlimit:4;stroke-dasharray:none;stroke-opacity:1;paint-order:markers fill stroke"
           id="ellipse833" />
        <path
           inkscape:label="bottom"
           clip-path="url(#clipPath937)"
           d="M 115.20146,74.079861 A 50.707554,31.338991 0 0 1 66.46904,97.48419 50.707554,31.338991 0 0 1 17.257847,74.465696"
           sodipodi:open="true"
           sodipodi:end="2.8728914"
           sodipodi:start="0.25595338"
           sodipodi:ry="31.338991"
           sodipodi:rx="50.707554"
           sodipodi:cy="66.145836"
           sodipodi:cx="66.145836"
           sodipodi:type="arc"
           id="ellipse909"
           style="display:none;fill:none;fill-opacity:1;stroke:#00f200;stroke-width:3.96875;stroke-linecap:round;stroke-linejoin:round;stroke-miterlimit:4;stroke-dasharray:none;stroke-opacity:1;paint-order:markers fill stroke" />
        <path
           inkscape:label="top"
           clip-path="url(#clipPath943)"
           sodipodi:open="true"
           d="M 17.072914,58.252782 A 50.707554,31.338991 0 0 1 66.964386,34.810928 50.707554,31.338991 0 0 1 115.60545,59.235935"
           sodipodi:end="6.0608696"
           sodipodi:start="3.3961949"
           sodipodi:ry="31.338991"
           sodipodi:rx="50.707554"
           sodipodi:cy="66.145836"
           sodipodi:cx="66.145836"
           sodipodi:type="arc"
           style="display:none;fill:none;fill-opacity:1;stroke:#00f200;stroke-width:3.96875;stroke-linecap:round;stroke-linejoin:round;stroke-miterlimit:4;stroke-dasharray:none;stroke-opacity:1;paint-order:markers fill stroke"
           id="ellipse911" />
        <path
           inkscape:export-ydpi="96"
           inkscape:export-xdpi="96"
           clip-path="url(#clipPath1019)"
           sodipodi:open="true"
           d="m 100.89896,43.324759 a 50.707554,31.338991 0 0 1 15.9488,23.288173 50.707554,31.338991 0 0 1 -17.06483,22.984031"
           sodipodi:end="0.84550335"
           sodipodi:start="5.4674923"
           sodipodi:ry="31.338991"
           sodipodi:rx="50.707554"
           sodipodi:cy="66.145836"
           sodipodi:cx="66.145836"
           sodipodi:type="arc"
           inkscape:label="right"
           id="ellipse1003"
           style="display:inline;fill:none;fill-opacity:1;stroke:#000400;stroke-width:6.61458302;stroke-linecap:round;stroke-linejoin:round;stroke-miterlimit:4;stroke-dasharray:none;stroke-opacity:1;paint-order:markers fill stroke" />
        <path
           clip-path="url(#clipPath1015)"
           sodipodi:open="true"
           d="M 33.590374,90.172958 A 50.707554,31.338991 0 0 1 15.45241,66.885565 50.707554,31.338991 0 0 1 31.791862,43.09507"
           sodipodi:end="3.9680412"
           sodipodi:start="2.2679315"
           sodipodi:ry="31.338991"
           sodipodi:rx="50.707554"
           sodipodi:cy="66.145836"
           sodipodi:cx="66.145836"
           sodipodi:type="arc"
           inkscape:label="left"
           style="display:inline;fill:none;fill-opacity:1;stroke:#000000;stroke-width:6.61458302;stroke-linecap:round;stroke-linejoin:round;stroke-miterlimit:4;stroke-dasharray:none;stroke-opacity:1;paint-order:markers fill stroke"
           id="ellipse1005" />
      </g>
      <g
         style="display:inline"
         inkscape:label="Livello 3"
         id="layer3">
        <g
           aria-label="SC"
           style="font-style:normal;font-variant:normal;font-weight:bold;font-stretch:normal;font-size:45.86111069px;line-height:1.25;font-family:'Berlin Sans FB Demi';-inkscape-font-specification:'Berlin Sans FB Demi, Bold';font-variant-ligatures:normal;font-variant-caps:normal;font-variant-numeric:normal;font-feature-settings:normal;text-align:start;letter-spacing:0px;word-spacing:0px;writing-mode:lr-tb;text-anchor:start;display:inline;fill:#000000;fill-opacity:1;stroke:none;stroke-width:0.26458332"
           id="text831">
          <path
             d="m 57.822482,72.663953 q 0,5.594835 -4.71289,9.591145 -4.134115,3.527778 -10.059679,4.492405 -0.220486,0.02756 -0.358289,0.02756 -0.633898,0 -2.811198,-3.858506 -2.177301,-3.886068 -2.177301,-4.740452 0,-0.303168 0.413412,-0.38585 3.99631,-0.909506 5.291666,-1.543403 2.86632,-1.43316 2.86632,-4.244358 0,-1.791449 -1.874132,-3.99631 -3.25217,-3.748264 -3.527778,-4.161676 -1.901693,-2.866319 -1.901693,-6.338975 0,-5.04362 4.657769,-8.378472 3.803386,-2.756076 9.343099,-3.582899 0.303169,-0.02756 0.468533,-0.02756 0.413412,0 0.661458,0.661458 0.71658,2.011936 3.334853,7.276042 0.08268,0.165364 0.08268,0.275607 0,0.468533 -0.496094,0.468533 -0.220486,0 -0.74414,-0.08268 -0.523655,-0.08268 -0.799262,-0.08268 -1.984375,0 -3.472657,0.909505 -1.791449,1.047309 -1.791449,2.921441 0,1.681206 1.984375,4.134114 3.500217,4.409722 3.665581,4.630209 1.956814,3.031684 1.956814,6.035807 z"
             style="font-size:56.44444275px"
             id="path877"
             inkscape:connector-curvature="0" />
          <path
             d="m 94.58854,79.113171 q 0,0.440972 -0.578776,1.157552 -5.07118,6.035807 -13.477213,6.035807 -8.598958,0 -13.945746,-5.870442 -5.208985,-5.677517 -5.208985,-14.331597 0,-8.378472 5.098742,-14.221354 5.319227,-6.118489 13.532334,-6.118489 8.929688,0 14.000868,5.484592 0.551215,0.606337 0.551215,1.07487 0,0.523654 -1.929253,3.886067 -1.901693,3.362413 -2.397787,3.775825 -0.220486,0.220486 -0.551215,0.220486 -0.137804,0 -1.378038,-1.102431 -1.488281,-1.322916 -2.921441,-2.067057 -2.1773,-1.10243 -4.519965,-1.10243 -4.051432,0 -6.476779,3.031683 -2.232422,2.811198 -2.232422,6.945313 0,4.189236 2.232422,7.027994 2.425347,3.086806 6.476779,3.086806 2.397786,0 4.547526,-1.047309 1.405599,-0.689019 2.866319,-1.929254 1.212674,-1.047309 1.350478,-1.047309 0.275607,0 0.551215,0.303169 0.440972,0.496093 2.397786,3.445095 2.011936,3.059245 2.011936,3.362413 z"
             style="font-size:56.44444275px"
             id="path879"
             inkscape:connector-curvature="0" />
        </g>
      </g>
      <g
         style="display:inline"
         transform="translate(0,-164.70832)"
         id="layer1-7"
         inkscape:label="Livello 1">
        <path
           sodipodi:insensitive="true"
           inkscape:connector-curvature="0"
           d="m 66.145832,230.85415 92.048578,-24.66434 -0.99806,49.06125 m 0,0 -91.050518,-24.39691 106.848408,-28.62994"
           style="display:none;fill:none;stroke:#000000;stroke-width:0.26458332px;stroke-linecap:butt;stroke-linejoin:miter;stroke-opacity:1"
           id="path836" />
        <path
           sodipodi:insensitive="true"
           inkscape:connector-curvature="0"
           id="path839"
           d="m 66.145832,230.85415 -96.70568,-25.91221 1.303472,51.47515 z"
           style="display:none;fill:none;stroke:#000000;stroke-width:0.26458332px;stroke-linecap:butt;stroke-linejoin:miter;stroke-opacity:1" />
        <path
           sodipodi:insensitive="true"
           inkscape:connector-curvature="0"
           id="path841"
           d="M 66.145832,230.85415 182.59441,199.65185 47.247023,166.5982 -35.500431,203.61812 Z"
           style="display:none;fill:none;stroke:#000000;stroke-width:0.26458332px;stroke-linecap:butt;stroke-linejoin:miter;stroke-opacity:1" />
        <path
           sodipodi:insensitive="true"
           inkscape:connector-curvature="0"
           id="path843"
           d="M 66.145832,230.85415 185.05713,262.71634 66.145832,292.27528 -38.768836,258.96595 Z"
           style="display:none;fill:#000000;fill-opacity:1;stroke:#000000;stroke-width:0.26458332px;stroke-linecap:butt;stroke-linejoin:miter;stroke-opacity:1" />
        <path
           inkscape:connector-curvature="0"
           id="path951"
           d="m 66.145832,230.85415 72.535868,-41.8786 0.0161,83.76647 z"
           style="display:none;fill:none;stroke:#000000;stroke-width:0.26458332px;stroke-linecap:butt;stroke-linejoin:miter;stroke-opacity:1" />
        <path
           inkscape:connector-curvature="0"
           id="path953"
           d="m 66.145832,230.85415 -77.263052,-44.60784 2.4753799,87.78652 z"
           style="display:none;fill:none;stroke:#000000;stroke-width:0.26458332px;stroke-linecap:butt;stroke-linejoin:miter;stroke-opacity:1" />
        <path
           id="path971"
           style="display:none;fill:none;stroke:#000000;stroke-width:0.26458332px;stroke-linecap:butt;stroke-linejoin:miter;stroke-opacity:1"
           d="m 66.145832,230.85415 92.048578,-24.66434 -0.99806,49.06125 m 0,0 -91.050518,-24.39691 106.848408,-28.62994"
           inkscape:connector-curvature="0"
           sodipodi:insensitive="true" />
        <path
           style="display:none;fill:none;stroke:#000000;stroke-width:0.26458332px;stroke-linecap:butt;stroke-linejoin:miter;stroke-opacity:1"
           d="m 66.145832,230.85415 -96.70568,-25.91221 1.303472,51.47515 z"
           id="path973"
           inkscape:connector-curvature="0"
           sodipodi:insensitive="true" />
      </g>
    </g>
    <g
       aria-label="WEBSITE"
       style="font-style:normal;font-variant:normal;font-weight:normal;font-stretch:normal;font-size:25.39999962px;line-height:1.25;font-family:Wingdings;-inkscape-font-specification:Wingdings;letter-spacing:0px;word-spacing:0px;fill:#000000;fill-opacity:1;stroke:none;stroke-width:0.26458332"
       id="text912">
      <path
         d="m 86.773145,117.76445 -5.7658,17.78 h -5.3848 l -3.4036,-10.8204 -3.556,10.8204 h -5.3848 l -5.765799,-17.78 h 5.1816 l 3.581399,11.3538 3.7592,-11.3538 h 4.6228 l 3.5814,11.4554 3.7338,-11.4554 z"
         style="font-style:normal;font-variant:normal;font-weight:800;font-stretch:normal;font-family:Montserrat;-inkscape-font-specification:'Montserrat Ultra-Bold';stroke-width:0.26458332"
         id="path862"
         inkscape:connector-curvature="0" />
      <path
         d="m 102.82515,131.65825 v 3.8862 H 88.550352 v -17.78 h 13.944598 v 3.8862 h -8.966198 v 2.9972 h 7.899398 v 3.7592 h -7.899398 v 3.2512 z"
         style="font-style:normal;font-variant:normal;font-weight:800;font-stretch:normal;font-family:Montserrat;-inkscape-font-specification:'Montserrat Ultra-Bold';stroke-width:0.26458332"
         id="path864"
         inkscape:connector-curvature="0" />
      <path
         d="m 119.28118,126.27345 q 1.524,0.5334 2.3876,1.6764 0.8636,1.1176 0.8636,2.7178 0,2.3368 -1.8796,3.6068 -1.8796,1.27 -5.4356,1.27 h -9.6012 v -17.78 h 9.0932 q 3.4036,0 5.1816,1.27 1.778,1.2446 1.778,3.3782 0,1.27 -0.635,2.286 -0.6096,0.9906 -1.7526,1.5748 z m -8.6868,-4.8768 v 3.429 h 3.4544 q 2.54,0 2.54,-1.7272 0,-1.7018 -2.54,-1.7018 z m 4.2164,10.5156 q 2.6416,0 2.6416,-1.8034 0,-1.8034 -2.6416,-1.8034 h -4.2164 v 3.6068 z"
         style="font-style:normal;font-variant:normal;font-weight:800;font-stretch:normal;font-family:Montserrat;-inkscape-font-specification:'Montserrat Ultra-Bold';stroke-width:0.26458332"
         id="path866"
         inkscape:connector-curvature="0" />
      <path
         d="m 131.41047,135.90005 q -2.159,0 -4.191,-0.5334 -2.032,-0.5334 -3.302,-1.4224 l 1.651,-3.7084 q 1.1938,0.7874 2.7686,1.27 1.5748,0.4826 3.0988,0.4826 2.8956,0 2.8956,-1.4478 0,-0.762 -0.8382,-1.1176 -0.8128,-0.381 -2.6416,-0.7874 -2.0066,-0.4318 -3.3528,-0.9144 -1.3462,-0.508 -2.3114,-1.6002 -0.9652,-1.0922 -0.9652,-2.9464 0,-1.6256 0.889,-2.921 0.889,-1.3208 2.6416,-2.0828 1.778,-0.762 4.3434,-0.762 1.7526,0 3.4544,0.4064 1.7018,0.381 2.9972,1.143 l -1.5494,3.7338 q -2.54,-1.3716 -4.9276,-1.3716 -1.4986,0 -2.1844,0.4572 -0.6858,0.4318 -0.6858,1.143 0,0.7112 0.8128,1.0668 0.8128,0.3556 2.6162,0.7366 2.032,0.4318 3.3528,0.9398 1.3462,0.4826 2.3114,1.5748 0.9906,1.0668 0.9906,2.921 0,1.6002 -0.889,2.8956 -0.889,1.2954 -2.667,2.0828 -1.778,0.762 -4.318,0.762 z"
         style="font-style:normal;font-variant:normal;font-weight:800;font-stretch:normal;font-family:Montserrat;-inkscape-font-specification:'Montserrat Ultra-Bold';stroke-width:0.26458332"
         id="path868"
         inkscape:connector-curvature="0" />
      <path
         d="m 141.58277,117.76445 h 5.0292 v 17.78 h -5.0292 z"
         style="font-style:normal;font-variant:normal;font-weight:800;font-stretch:normal;font-family:Montserrat;-inkscape-font-specification:'Montserrat Ultra-Bold';stroke-width:0.26458332"
         id="path870"
         inkscape:connector-curvature="0" />
      <path
         d="m 153.9994,121.75225 h -5.461 v -3.9878 h 15.9258 v 3.9878 h -5.4356 v 13.7922 h -5.0292 z"
         style="font-style:normal;font-variant:normal;font-weight:800;font-stretch:normal;font-family:Montserrat;-inkscape-font-specification:'Montserrat Ultra-Bold';stroke-width:0.26458332"
         id="path872"
         inkscape:connector-curvature="0" />
      <path
         d="m 180.61265,131.65825 v 3.8862 h -14.2748 v -17.78 h 13.9446 v 3.8862 h -8.9662 v 2.9972 h 7.8994 v 3.7592 h -7.8994 v 3.2512 z"
         style="font-style:normal;font-variant:normal;font-weight:800;font-stretch:normal;font-family:Montserrat;-inkscape-font-specification:'Montserrat Ultra-Bold';stroke-width:0.26458332"
         id="path874"
         inkscape:connector-curvature="0" />
    </g>
  </g>
</svg>
