<?xml version="1.0" encoding="UTF-8" standalone="no"?>
<!-- Created with Inkscape (http://www.inkscape.org/) -->

<svg
   xmlns:dc="http://purl.org/dc/elements/1.1/"
   xmlns:cc="http://creativecommons.org/ns#"
   xmlns:rdf="http://www.w3.org/1999/02/22-rdf-syntax-ns#"
   xmlns:svg="http://www.w3.org/2000/svg"
   xmlns="http://www.w3.org/2000/svg"
   xmlns:sodipodi="http://sodipodi.sourceforge.net/DTD/sodipodi-0.dtd"
   xmlns:inkscape="http://www.inkscape.org/namespaces/inkscape"
   width="500"
   height="500"
   viewBox="0 0 132.29166 132.29167"
   version="1.1"
   id="svg8"
   sodipodi:docname="logo_sc.svg"
   inkscape:version="0.92.4 (5da689c313, 2019-01-14)"
   inkscape:export-filename="C:\Users\simone\Desktop\logo mz.png"
   inkscape:export-xdpi="96"
   inkscape:export-ydpi="96">
  <defs
     id="defs2">
    <clipPath
       clipPathUnits="userSpaceOnUse"
       id="clipPath937">
      <path
         sodipodi:insensitive="true"
         inkscape:connector-curvature="0"
         id="path939"
         d="M 66.145832,66.14583 185.05713,98.008021 66.145832,127.56696 -38.768837,94.257629 Z"
         style="display:inline;fill:#000000;fill-opacity:1;stroke:#000000;stroke-width:0.26458332px;stroke-linecap:butt;stroke-linejoin:miter;stroke-opacity:1" />
    </clipPath>
    <clipPath
       clipPathUnits="userSpaceOnUse"
       id="clipPath943">
      <path
         sodipodi:insensitive="true"
         inkscape:connector-curvature="0"
         id="path945"
         d="M 66.145832,66.14583 182.59441,34.943531 47.247024,1.88988 -35.500431,38.909799 Z"
         style="display:inline;fill:none;stroke:#000000;stroke-width:0.26458332px;stroke-linecap:butt;stroke-linejoin:miter;stroke-opacity:1" />
    </clipPath>
    <clipPath
       clipPathUnits="userSpaceOnUse"
       id="clipPath959">
      <path
         inkscape:connector-curvature="0"
         id="path961"
         d="m 66.145832,66.14583 72.535868,-41.8786 0.0161,83.76647 z"
         style="fill:none;stroke:#000000;stroke-width:0.26458332px;stroke-linecap:butt;stroke-linejoin:miter;stroke-opacity:1" />
    </clipPath>
    <clipPath
       clipPathUnits="userSpaceOnUse"
       id="clipPath963">
      <path
         inkscape:connector-curvature="0"
         id="path965"
         d="M 66.145832,66.14583 -11.11722,21.53799 -8.64184,109.32451 Z"
         style="display:inline;fill:none;stroke:#000000;stroke-width:0.26458332px;stroke-linecap:butt;stroke-linejoin:miter;stroke-opacity:1" />
    </clipPath>
    <clipPath
       clipPathUnits="userSpaceOnUse"
       id="clipPath995">
      <path
         sodipodi:insensitive="true"
         inkscape:connector-curvature="0"
         id="path997"
         d="M 66.145832,66.14583 182.59441,34.943531 47.247024,1.88988 -35.500431,38.909799 Z"
         style="display:inline;fill:none;stroke:#000000;stroke-width:0.26458332px;stroke-linecap:butt;stroke-linejoin:miter;stroke-opacity:1" />
    </clipPath>
    <clipPath
       clipPathUnits="userSpaceOnUse"
       id="clipPath999">
      <path
         sodipodi:insensitive="true"
         inkscape:connector-curvature="0"
         id="path1001"
         d="M 66.145832,66.14583 185.05713,98.008021 66.145832,127.56696 -38.768837,94.257629 Z"
         style="display:inline;fill:#000000;fill-opacity:1;stroke:#000000;stroke-width:0.26458332px;stroke-linecap:butt;stroke-linejoin:miter;stroke-opacity:1" />
    </clipPath>
    <clipPath
       clipPathUnits="userSpaceOnUse"
       id="clipPath1015">
      <path
         inkscape:connector-curvature="0"
         id="path1017"
         d="M 66.145832,66.14583 -11.11722,21.53799 -8.64184,109.32451 Z"
         style="display:inline;fill:none;stroke:#000000;stroke-width:0.26458332px;stroke-linecap:butt;stroke-linejoin:miter;stroke-opacity:1" />
    </clipPath>
    <clipPath
       clipPathUnits="userSpaceOnUse"
       id="clipPath1019">
      <path
         inkscape:connector-curvature="0"
         id="path1021"
         d="m 66.145832,66.14583 72.535868,-41.8786 0.0161,83.76647 z"
         style="display:inline;fill:none;stroke:#000000;stroke-width:0.26458332px;stroke-linecap:butt;stroke-linejoin:miter;stroke-opacity:1" />
    </clipPath>
  </defs>
  <sodipodi:namedview
     id="base"
     pagecolor="#ffffff"
     bordercolor="#666666"
     borderopacity="1.0"
     inkscape:pageopacity="0.0"
     inkscape:pageshadow="2"
     inkscape:zoom="1.4"
     inkscape:cx="69.715294"
     inkscape:cy="211.82302"
     inkscape:document-units="px"
     inkscape:current-layer="layer3"
     showgrid="false"
     units="px"
     showguides="true"
     inkscape:guide-bbox="true"
     inkscape:window-width="1920"
     inkscape:window-height="1017"
     inkscape:window-x="-8"
     inkscape:window-y="-8"
     inkscape:window-maximized="1">
    <sodipodi:guide
       position="66.145832,66.145832"
       orientation="1,0"
       id="guide815"
       inkscape:locked="false"
       inkscape:label=""
       inkscape:color="rgb(0,0,255)" />
    <sodipodi:guide
       position="66.145832,66.145832"
       orientation="0,1"
       id="guide817"
       inkscape:locked="false"
       inkscape:label=""
       inkscape:color="rgb(0,0,255)" />
  </sodipodi:namedview>
  <metadata
     id="metadata5">
    <rdf:RDF>
      <cc:Work
         rdf:about="">
        <dc:format>image/svg+xml</dc:format>
        <dc:type
           rdf:resource="http://purl.org/dc/dcmitype/StillImage" />
        <dc:title />
      </cc:Work>
    </rdf:RDF>
  </metadata>
  <g
     inkscape:groupmode="layer"
     id="layer2"
     inkscape:label="ellipse external"
     style="display:inline">
    <ellipse
       style="display:none;fill:none;fill-opacity:1;stroke:#000000;stroke-width:3.96875;stroke-linecap:round;stroke-linejoin:round;stroke-miterlimit:4;stroke-dasharray:none;stroke-opacity:1;paint-order:markers fill stroke"
       id="path826"
       cx="66.145836"
       cy="66.145836"
       rx="60.73196"
       ry="37.534416"
       inkscape:label="original" />
    <path
       id="ellipse947"
       style="display:none;fill:none;fill-opacity:1;stroke:#000000;stroke-width:3.96875;stroke-linecap:round;stroke-linejoin:round;stroke-miterlimit:4;stroke-dasharray:none;stroke-opacity:1;paint-order:markers fill stroke"
       sodipodi:type="arc"
       sodipodi:cx="66.145836"
       sodipodi:cy="66.145836"
       sodipodi:rx="60.73196"
       sodipodi:ry="37.534416"
       sodipodi:start="5.4907811"
       sodipodi:end="0.83810856"
       d="m 108.7879,39.419702 a 60.73196,37.534416 0 0 1 18.07404,27.583802 60.73196,37.534416 0 0 1 -20.09431,27.044641"
       sodipodi:open="true"
       clip-path="url(#clipPath959)"
       inkscape:label="right" />
    <path
       style="display:none;fill:none;fill-opacity:1;stroke:#000000;stroke-width:3.96875;stroke-linecap:round;stroke-linejoin:round;stroke-miterlimit:4;stroke-dasharray:none;stroke-opacity:1;paint-order:markers fill stroke"
       id="ellipse949"
       sodipodi:type="arc"
       sodipodi:cx="66.145836"
       sodipodi:cy="66.145836"
       sodipodi:rx="60.73196"
       sodipodi:ry="37.534416"
       sodipodi:start="1.8317386"
       sodipodi:end="4.2858019"
       d="M 50.477534,102.40961 A 60.73196,37.534416 0 0 1 5.6220535,69.250974 60.73196,37.534416 0 0 1 41.017006,31.975134"
       sodipodi:open="true"
       clip-path="url(#clipPath963)"
       inkscape:label="left" />
    <path
       id="ellipse967"
       style="display:inline;fill:none;fill-opacity:1;stroke:#000000;stroke-width:6.61458302;stroke-linecap:round;stroke-linejoin:round;stroke-miterlimit:4;stroke-dasharray:none;stroke-opacity:1;paint-order:markers fill stroke"
       sodipodi:type="arc"
       sodipodi:cx="66.145836"
       sodipodi:cy="66.145836"
       sodipodi:rx="60.73196"
       sodipodi:ry="37.534416"
       sodipodi:start="0.31456051"
       sodipodi:end="2.8405318"
       d="M 123.89783,77.758931 A 60.73196,37.534416 0 0 1 65.735909,103.6794 60.73196,37.534416 0 0 1 8.1454505,77.276048"
       sodipodi:open="true"
       clip-path="url(#clipPath999)"
       inkscape:label="bottom" />
    <path
       style="display:inline;fill:none;fill-opacity:1;stroke:#000000;stroke-width:6.61458302;stroke-linecap:round;stroke-linejoin:round;stroke-miterlimit:4;stroke-dasharray:none;stroke-opacity:1;paint-order:markers fill stroke"
       id="ellipse969"
       sodipodi:type="arc"
       sodipodi:cx="66.145836"
       sodipodi:cy="66.145836"
       sodipodi:rx="60.73196"
       sodipodi:ry="37.534416"
       sodipodi:start="3.4673133"
       sodipodi:end="5.9523549"
       d="M 8.6071395,54.135137 A 60.73196,37.534416 0 0 1 65.990673,28.611542 60.73196,37.534416 0 0 1 123.58448,53.953587"
       sodipodi:open="true"
       clip-path="url(#clipPath995)"
       inkscape:label="top" />
  </g>
  <g
     style="display:inline"
     inkscape:label="ellipse internal"
     id="g835"
     inkscape:groupmode="layer">
    <ellipse
       id="ellipse833"
       style="display:none;fill:none;fill-opacity:1;stroke:#00f200;stroke-width:3.96875;stroke-linecap:round;stroke-linejoin:round;stroke-miterlimit:4;stroke-dasharray:none;stroke-opacity:1;paint-order:markers fill stroke"
       ry="31.338991"
       rx="50.707554"
       cy="66.145836"
       cx="66.145836"
       inkscape:label="original" />
    <path
       style="display:none;fill:none;fill-opacity:1;stroke:#00f200;stroke-width:3.96875;stroke-linecap:round;stroke-linejoin:round;stroke-miterlimit:4;stroke-dasharray:none;stroke-opacity:1;paint-order:markers fill stroke"
       id="ellipse909"
       sodipodi:type="arc"
       sodipodi:cx="66.145836"
       sodipodi:cy="66.145836"
       sodipodi:rx="50.707554"
       sodipodi:ry="31.338991"
       sodipodi:start="0.25595338"
       sodipodi:end="2.8728914"
       sodipodi:open="true"
       d="M 115.20146,74.079861 A 50.707554,31.338991 0 0 1 66.46904,97.48419 50.707554,31.338991 0 0 1 17.257847,74.465696"
       clip-path="url(#clipPath937)"
       inkscape:label="bottom" />
    <path
       id="ellipse911"
       style="display:none;fill:none;fill-opacity:1;stroke:#00f200;stroke-width:3.96875;stroke-linecap:round;stroke-linejoin:round;stroke-miterlimit:4;stroke-dasharray:none;stroke-opacity:1;paint-order:markers fill stroke"
       sodipodi:type="arc"
       sodipodi:cx="66.145836"
       sodipodi:cy="66.145836"
       sodipodi:rx="50.707554"
       sodipodi:ry="31.338991"
       sodipodi:start="3.3961949"
       sodipodi:end="6.0608696"
       d="M 17.072914,58.252782 A 50.707554,31.338991 0 0 1 66.964386,34.810928 50.707554,31.338991 0 0 1 115.60545,59.235935"
       sodipodi:open="true"
       clip-path="url(#clipPath943)"
       inkscape:label="top" />
    <path
       style="display:inline;fill:none;fill-opacity:1;stroke:#000400;stroke-width:6.61458325;stroke-linecap:round;stroke-linejoin:round;stroke-miterlimit:4;stroke-dasharray:none;stroke-opacity:1;paint-order:markers fill stroke"
       id="ellipse1003"
       inkscape:label="right"
       sodipodi:type="arc"
       sodipodi:cx="66.145836"
       sodipodi:cy="66.145836"
       sodipodi:rx="50.707554"
       sodipodi:ry="31.338991"
       sodipodi:start="5.4674923"
       sodipodi:end="0.84550335"
       d="m 100.89896,43.324759 a 50.707554,31.338991 0 0 1 15.9488,23.288173 50.707554,31.338991 0 0 1 -17.06483,22.984031"
       sodipodi:open="true"
       clip-path="url(#clipPath1019)"
       inkscape:export-xdpi="96"
       inkscape:export-ydpi="96" />
    <path
       id="ellipse1005"
       style="display:inline;fill:none;fill-opacity:1;stroke:#000000;stroke-width:6.61458325;stroke-linecap:round;stroke-linejoin:round;stroke-miterlimit:4;stroke-dasharray:none;stroke-opacity:1;paint-order:markers fill stroke"
       inkscape:label="left"
       sodipodi:type="arc"
       sodipodi:cx="66.145836"
       sodipodi:cy="66.145836"
       sodipodi:rx="50.707554"
       sodipodi:ry="31.338991"
       sodipodi:start="2.2679315"
       sodipodi:end="3.9680412"
       d="M 33.590374,90.172958 A 50.707554,31.338991 0 0 1 15.45241,66.885565 50.707554,31.338991 0 0 1 31.791862,43.09507"
       sodipodi:open="true"
       clip-path="url(#clipPath1015)" />
  </g>
  <g
     inkscape:groupmode="layer"
     id="layer3"
     inkscape:label="Livello 3"
     sodipodi:insensitive="true"
     style="display:inline">
    <g
      
       id="text831">
      <path
         d="m 57.822482,72.663953 q 0,5.594835 -4.71289,9.591145 -4.134115,3.527778 -10.059679,4.492405 -0.220486,0.02756 -0.358289,0.02756 -0.633898,0 -2.811198,-3.858506 -2.177301,-3.886068 -2.177301,-4.740452 0,-0.303168 0.413412,-0.38585 3.99631,-0.909506 5.291666,-1.543403 2.86632,-1.43316 2.86632,-4.244358 0,-1.791449 -1.874132,-3.99631 -3.25217,-3.748264 -3.527778,-4.161676 -1.901693,-2.866319 -1.901693,-6.338975 0,-5.04362 4.657769,-8.378472 3.803386,-2.756076 9.343099,-3.582899 0.303169,-0.02756 0.468533,-0.02756 0.413412,0 0.661458,0.661458 0.71658,2.011936 3.334853,7.276042 0.08268,0.165364 0.08268,0.275607 0,0.468533 -0.496094,0.468533 -0.220486,0 -0.74414,-0.08268 -0.523655,-0.08268 -0.799262,-0.08268 -1.984375,0 -3.472657,0.909505 -1.791449,1.047309 -1.791449,2.921441 0,1.681206 1.984375,4.134114 3.500217,4.409722 3.665581,4.630209 1.956814,3.031684 1.956814,6.035807 z"
         style="font-size:56.44444275px"
         id="path853"
         inkscape:connector-curvature="0" />
      <path
         d="m 94.58854,79.113171 q 0,0.440972 -0.578776,1.157552 -5.07118,6.035807 -13.477213,6.035807 -8.598958,0 -13.945746,-5.870442 -5.208985,-5.677517 -5.208985,-14.331597 0,-8.378472 5.098742,-14.221354 5.319227,-6.118489 13.532334,-6.118489 8.929688,0 14.000868,5.484592 0.551215,0.606337 0.551215,1.07487 0,0.523654 -1.929253,3.886067 -1.901693,3.362413 -2.397787,3.775825 -0.220486,0.220486 -0.551215,0.220486 -0.137804,0 -1.378038,-1.102431 -1.488281,-1.322916 -2.921441,-2.067057 -2.1773,-1.10243 -4.519965,-1.10243 -4.051432,0 -6.476779,3.031683 -2.232422,2.811198 -2.232422,6.945313 0,4.189236 2.232422,7.027994 2.425347,3.086806 6.476779,3.086806 2.397786,0 4.547526,-1.047309 1.405599,-0.689019 2.866319,-1.929254 1.212674,-1.047309 1.350478,-1.047309 0.275607,0 0.551215,0.303169 0.440972,0.496093 2.397786,3.445095 2.011936,3.059245 2.011936,3.362413 z"
         style="font-size:56.44444275px"
         id="path855"
         inkscape:connector-curvature="0" />
    </g>
  </g>
  <g
     inkscape:label="Livello 1"
     inkscape:groupmode="layer"
     id="layer1"
     transform="translate(0,-164.70832)"
     style="display:inline">
    <path
       id="path836"
       style="display:none;fill:none;stroke:#000000;stroke-width:0.26458332px;stroke-linecap:butt;stroke-linejoin:miter;stroke-opacity:1"
       d="m 66.145832,230.85415 92.048578,-24.66434 -0.99806,49.06125 m 0,0 -91.050518,-24.39691 106.848408,-28.62994"
       inkscape:connector-curvature="0"
       sodipodi:insensitive="true" />
    <path
       style="display:none;fill:none;stroke:#000000;stroke-width:0.26458332px;stroke-linecap:butt;stroke-linejoin:miter;stroke-opacity:1"
       d="m 66.145832,230.85415 -96.70568,-25.91221 1.303472,51.47515 z"
       id="path839"
       inkscape:connector-curvature="0"
       sodipodi:insensitive="true" />
    <path
       style="display:none;fill:none;stroke:#000000;stroke-width:0.26458332px;stroke-linecap:butt;stroke-linejoin:miter;stroke-opacity:1"
       d="M 66.145832,230.85415 182.59441,199.65185 47.247023,166.5982 -35.500431,203.61812 Z"
       id="path841"
       inkscape:connector-curvature="0"
       sodipodi:insensitive="true" />
    <path
       style="display:none;fill:#000000;fill-opacity:1;stroke:#000000;stroke-width:0.26458332px;stroke-linecap:butt;stroke-linejoin:miter;stroke-opacity:1"
       d="M 66.145832,230.85415 185.05713,262.71634 66.145832,292.27528 -38.768836,258.96595 Z"
       id="path843"
       inkscape:connector-curvature="0"
       sodipodi:insensitive="true" />
    <path
       style="display:none;fill:none;stroke:#000000;stroke-width:0.26458332px;stroke-linecap:butt;stroke-linejoin:miter;stroke-opacity:1"
       d="m 66.145832,230.85415 72.535868,-41.8786 0.0161,83.76647 z"
       id="path951"
       inkscape:connector-curvature="0" />
    <path
       style="display:none;fill:none;stroke:#000000;stroke-width:0.26458332px;stroke-linecap:butt;stroke-linejoin:miter;stroke-opacity:1"
       d="m 66.145832,230.85415 -77.263052,-44.60784 2.4753799,87.78652 z"
       id="path953"
       inkscape:connector-curvature="0" />
    <path
       sodipodi:insensitive="true"
       inkscape:connector-curvature="0"
       d="m 66.145832,230.85415 92.048578,-24.66434 -0.99806,49.06125 m 0,0 -91.050518,-24.39691 106.848408,-28.62994"
       style="display:none;fill:none;stroke:#000000;stroke-width:0.26458332px;stroke-linecap:butt;stroke-linejoin:miter;stroke-opacity:1"
       id="path971" />
    <path
       sodipodi:insensitive="true"
       inkscape:connector-curvature="0"
       id="path973"
       d="m 66.145832,230.85415 -96.70568,-25.91221 1.303472,51.47515 z"
       style="display:none;fill:none;stroke:#000000;stroke-width:0.26458332px;stroke-linecap:butt;stroke-linejoin:miter;stroke-opacity:1" />
  </g>
</svg>
